#N canvas 1280 68 1920 980 16;
#X obj 217 440 loadbang;
#X msg 217 499 \; pd dsp 1;
#X obj 43 41 oscparse;
#X obj 43 70 list trim;
#X obj 47 282 *~;
#X obj 79 342 *~;
#X obj 146 342 *~;
#X obj 211 341 *~;
#X obj 277 341 *~;
#X obj 343 343 *~;
#X obj 113 281 *~;
#X obj 178 284 *~;
#X obj 244 284 *~;
#X obj 310 285 *~;
#X obj 409 347 *~;
#X obj 474 343 *~;
#X obj 539 342 *~;
#X obj 377 286 *~;
#X obj 443 285 *~;
#X obj 508 288 *~;
#X obj 47 385 dac~ 1 2 3 4 5 6 7 8 9 10 11 12 13 14 15 16, f 50;
#X obj 47 236 adc~ 1 2 3 4 5 6 7 8 9 10 11 12 13 14 15 16, f 49;
#X obj 34 99 route vol_0;
#X obj 31 135 route vol_1;
#X obj 33 171 route vol_2;
#X obj 44 206 route vol_3;
#X obj 144 99 route vol_4;
#X obj 151 127 route vol_5;
#X obj 151 168 route vol_6;
#X obj 161 201 route vol_7;
#X obj 269 94 route vol_8;
#X obj 267 126 route vol_9;
#X obj 273 165 route vol_10;
#X obj 274 203 route vol_11;
#X obj 387 92 route vol_12;
#X obj 393 128 route vol_13;
#X obj 395 169 route vol_14;
#X obj 43 10 netreceive -u -b 1054;
#X obj 404 205 route vol_15;
#X connect 0 0 1 0;
#X connect 2 0 3 0;
#X connect 3 0 22 0;
#X connect 4 0 20 0;
#X connect 5 0 20 1;
#X connect 6 0 20 3;
#X connect 7 0 20 5;
#X connect 8 0 20 7;
#X connect 9 0 20 9;
#X connect 10 0 20 2;
#X connect 11 0 20 4;
#X connect 12 0 20 6;
#X connect 13 0 20 8;
#X connect 14 0 20 11;
#X connect 15 0 20 13;
#X connect 16 0 20 15;
#X connect 17 0 20 10;
#X connect 18 0 20 12;
#X connect 19 0 20 14;
#X connect 21 0 4 0;
#X connect 21 1 5 0;
#X connect 21 2 10 0;
#X connect 21 3 6 0;
#X connect 21 4 11 0;
#X connect 21 5 7 0;
#X connect 21 6 12 0;
#X connect 21 7 8 0;
#X connect 21 8 13 0;
#X connect 21 9 9 0;
#X connect 21 10 17 0;
#X connect 21 11 14 0;
#X connect 21 12 18 0;
#X connect 21 13 15 0;
#X connect 21 14 19 0;
#X connect 21 15 16 0;
#X connect 22 0 4 1;
#X connect 22 1 23 0;
#X connect 23 0 5 1;
#X connect 23 1 24 0;
#X connect 24 0 10 1;
#X connect 24 1 25 0;
#X connect 25 0 6 1;
#X connect 25 1 26 0;
#X connect 26 0 11 1;
#X connect 26 1 27 0;
#X connect 27 0 7 1;
#X connect 27 1 28 0;
#X connect 28 0 12 1;
#X connect 28 1 29 0;
#X connect 29 0 8 1;
#X connect 29 1 30 0;
#X connect 30 0 13 1;
#X connect 30 1 31 0;
#X connect 31 0 9 1;
#X connect 31 1 32 0;
#X connect 32 0 17 1;
#X connect 32 1 33 0;
#X connect 33 0 14 1;
#X connect 33 1 34 0;
#X connect 34 0 18 1;
#X connect 34 1 35 0;
#X connect 35 0 15 1;
#X connect 35 1 36 0;
#X connect 36 0 19 1;
#X connect 36 1 38 0;
#X connect 37 0 2 0;
#X connect 38 0 16 1;
