#N canvas 1280 68 1920 980 16;
#X obj 217 440 loadbang;
#X msg 217 499 \; pd dsp 1;
#X obj 43 10 netreceive -u -b 2000;
#X obj 43 41 oscparse;
#X obj 43 70 list trim;
#X obj 47 282 *~;
#X obj 79 342 *~;
#X obj 146 342 *~;
#X obj 211 341 *~;
#X obj 277 341 *~;
#X obj 343 343 *~;
#X obj 113 281 *~;
#X obj 178 284 *~;
#X obj 244 284 *~;
#X obj 310 285 *~;
#X obj 409 347 *~;
#X obj 474 343 *~;
#X obj 539 342 *~;
#X obj 605 342 *~;
#X obj 671 344 *~;
#X obj 377 286 *~;
#X obj 443 285 *~;
#X obj 508 288 *~;
#X obj 574 288 *~;
#X obj 640 289 *~;
#X obj 704 285 *~;
#X obj 736 346 *~;
#X obj 803 345 *~;
#X obj 868 344 *~;
#X obj 934 344 *~;
#X obj 1000 346 *~;
#X obj 770 284 *~;
#X obj 835 287 *~;
#X obj 901 287 *~;
#X obj 967 288 *~;
#X obj 1064 346 *~;
#X obj 1131 346 *~;
#X obj 1196 345 *~;
#X obj 1262 345 *~;
#X obj 1328 347 *~;
#X obj 1034 289 *~;
#X obj 1100 288 *~;
#X obj 1165 291 *~;
#X obj 1231 291 *~;
#X obj 1297 292 *~;
#X obj 1354 287 *~;
#X obj 1386 347 *~;
#X obj 1453 347 *~;
#X obj 1518 346 *~;
#X obj 1584 346 *~;
#X obj 1650 348 *~;
#X obj 1420 286 *~;
#X obj 1485 289 *~;
#X obj 1551 289 *~;
#X obj 1617 290 *~;
#X obj 1714 348 *~;
#X obj 1781 348 *~;
#X obj 1846 347 *~;
#X obj 1912 347 *~;
#X obj 1978 349 *~;
#X obj 1684 291 *~;
#X obj 1750 290 *~;
#X obj 1815 293 *~;
#X obj 1881 293 *~;
#X obj 1947 294 *~;
#X obj 2018 291 *~;
#X obj 2050 351 *~;
#X obj 2117 351 *~;
#X obj 2182 350 *~;
#X obj 2248 350 *~;
#X obj 2314 352 *~;
#X obj 2084 290 *~;
#X obj 2149 293 *~;
#X obj 2215 293 *~;
#X obj 2281 294 *~;
#X obj 2378 352 *~;
#X obj 2445 352 *~;
#X obj 2510 351 *~;
#X obj 2576 351 *~;
#X obj 2642 353 *~;
#X obj 2348 295 *~;
#X obj 2414 294 *~;
#X obj 2479 297 *~;
#X obj 2545 297 *~;
#X obj 2611 298 *~;
#X obj 43 100 route 0_0;
#X obj 50 128 route 0_1;
#X obj 65 162 route 0_2;
#X obj 81 197 route 0_3;
#X obj 144 99 route 0_4;
#X obj 151 127 route 0_5;
#X obj 166 161 route 0_6;
#X obj 188 199 route 0_7;
#X obj 245 97 route 0_8;
#X obj 252 125 route 0_9;
#X obj 267 159 route 0_10;
#X obj 289 197 route 0_11;
#X obj 352 96 route 0_12;
#X obj 359 124 route 0_13;
#X obj 374 158 route 0_14;
#X obj 396 196 route 0_15;
#X obj 532 99 route 1_0;
#X obj 539 127 route 1_1;
#X obj 554 161 route 1_2;
#X obj 570 196 route 1_3;
#X obj 675 198 route 1_7;
#X obj 655 160 route 1_6;
#X obj 640 126 route 1_5;
#X obj 633 98 route 1_4;
#X obj 734 96 route 1_8;
#X obj 741 124 route 1_9;
#X obj 756 158 route 1_10;
#X obj 778 196 route 1_11;
#X obj 841 95 route 1_12;
#X obj 848 123 route 1_13;
#X obj 863 157 route 1_14;
#X obj 885 195 route 1_15;
#X obj 1072 91 route 2_0;
#X obj 1092 125 route 2_1;
#X obj 1107 159 route 2_2;
#X obj 1123 194 route 2_3;
#X obj 1228 196 route 2_7;
#X obj 1208 158 route 2_6;
#X obj 1193 124 route 2_5;
#X obj 1186 96 route 2_4;
#X obj 1330 194 route 2_11;
#X obj 1309 156 route 2_10;
#X obj 1294 122 route 2_9;
#X obj 1287 94 route 2_8;
#X obj 1394 93 route 2_12;
#X obj 1401 121 route 2_13;
#X obj 1416 155 route 2_14;
#X obj 1438 193 route 2_15;
#X obj 1592 79 route 3_0;
#X obj 1619 111 route 3_1;
#X obj 1634 145 route 3_2;
#X obj 1650 180 route 3_3;
#X obj 1713 82 route 3_4;
#X obj 1720 110 route 3_5;
#X obj 1735 144 route 3_6;
#X obj 1755 182 route 3_7;
#X obj 1814 80 route 3_8;
#X obj 1821 108 route 3_9;
#X obj 1836 142 route 3_10;
#X obj 1857 180 route 3_11;
#X obj 1921 79 route 3_12;
#X obj 1928 107 route 3_13;
#X obj 1943 141 route 3_14;
#X obj 1965 179 route 3_15;
#X obj 2133 84 route 4_0;
#X obj 2160 116 route 4_1;
#X obj 2175 150 route 4_2;
#X obj 2191 185 route 4_3;
#X obj 2254 87 route 4_4;
#X obj 2261 115 route 4_5;
#X obj 2276 149 route 4_6;
#X obj 2296 187 route 4_7;
#X obj 2355 85 route 4_8;
#X obj 2362 113 route 4_9;
#X obj 2377 147 route 4_10;
#X obj 2398 185 route 4_11;
#X obj 2462 84 route 4_12;
#X obj 2469 112 route 4_13;
#X obj 2484 146 route 4_14;
#X obj 2506 184 route 4_15;
#X obj 48 237 adc~ 1 2 3 4 5 6 7 8 9 10 11 12 13 14 15 16 17 18 19 20 21 22 23 24 25 26 27 28 29 30 31 32 33 34 35 36 37 38 39 40 41 42 43 44 45 46 47 48 49 50 51 52 53 54 55 56 57 58 59 60 61 62 63 64 65 66 67 68 69 70 71 72 73 74 75 76 77 78 79 80, f 260;
#X obj 47 385 dac~ 1 2 3 4 5 6 7 8 9 10 11 12 13 14 15 16 17 18 19 20 21 22 23 24 25 26 27 28 29 30 31 32 33 34 35 36 37 38 39 40 41 42 43 44 45 46 47 48 49 50 51 52 53 54 55 56 57 58 59 60 61 62 63 64 65 66 67 68 69 70 71 72 73 74 75 76 77 78 79 80, f 260;
#X connect 0 0 1 0;
#X connect 2 0 3 0;
#X connect 3 0 4 0;
#X connect 4 0 85 0;
#X connect 5 0 166 0;
#X connect 6 0 166 1;
#X connect 7 0 166 3;
#X connect 8 0 166 5;
#X connect 9 0 166 7;
#X connect 10 0 166 9;
#X connect 11 0 166 2;
#X connect 12 0 166 4;
#X connect 13 0 166 6;
#X connect 14 0 166 8;
#X connect 15 0 166 11;
#X connect 16 0 166 13;
#X connect 17 0 166 15;
#X connect 18 0 166 17;
#X connect 19 0 166 19;
#X connect 20 0 166 10;
#X connect 21 0 166 12;
#X connect 22 0 166 14;
#X connect 23 0 166 16;
#X connect 24 0 166 18;
#X connect 25 0 166 20;
#X connect 26 0 166 21;
#X connect 27 0 166 23;
#X connect 28 0 166 25;
#X connect 29 0 166 27;
#X connect 30 0 166 29;
#X connect 31 0 166 22;
#X connect 32 0 166 24;
#X connect 33 0 166 26;
#X connect 34 0 166 28;
#X connect 35 0 166 31;
#X connect 36 0 166 33;
#X connect 37 0 166 35;
#X connect 38 0 166 37;
#X connect 39 0 166 39;
#X connect 40 0 166 30;
#X connect 41 0 166 32;
#X connect 42 0 166 34;
#X connect 43 0 166 36;
#X connect 44 0 166 38;
#X connect 45 0 166 40;
#X connect 46 0 166 41;
#X connect 47 0 166 43;
#X connect 48 0 166 45;
#X connect 49 0 166 47;
#X connect 50 0 166 49;
#X connect 51 0 166 42;
#X connect 52 0 166 44;
#X connect 53 0 166 46;
#X connect 54 0 166 48;
#X connect 55 0 166 51;
#X connect 56 0 166 53;
#X connect 57 0 166 55;
#X connect 58 0 166 57;
#X connect 59 0 166 59;
#X connect 60 0 166 50;
#X connect 61 0 166 52;
#X connect 62 0 166 54;
#X connect 63 0 166 56;
#X connect 64 0 166 58;
#X connect 65 0 166 60;
#X connect 66 0 166 61;
#X connect 67 0 166 63;
#X connect 68 0 166 65;
#X connect 69 0 166 67;
#X connect 70 0 166 69;
#X connect 71 0 166 62;
#X connect 72 0 166 64;
#X connect 73 0 166 66;
#X connect 74 0 166 68;
#X connect 75 0 166 71;
#X connect 76 0 166 73;
#X connect 77 0 166 75;
#X connect 78 0 166 77;
#X connect 79 0 166 79;
#X connect 80 0 166 70;
#X connect 81 0 166 72;
#X connect 82 0 166 74;
#X connect 83 0 166 76;
#X connect 84 0 166 78;
#X connect 85 0 5 1;
#X connect 85 1 86 0;
#X connect 86 0 6 1;
#X connect 86 1 87 0;
#X connect 87 0 11 1;
#X connect 87 1 88 0;
#X connect 88 0 7 1;
#X connect 88 1 89 0;
#X connect 89 0 12 1;
#X connect 89 1 90 0;
#X connect 90 0 8 1;
#X connect 90 1 91 0;
#X connect 91 0 13 1;
#X connect 91 1 92 0;
#X connect 92 0 9 1;
#X connect 92 1 93 0;
#X connect 93 0 14 1;
#X connect 93 1 94 0;
#X connect 94 0 10 1;
#X connect 94 1 95 0;
#X connect 95 0 20 1;
#X connect 95 1 96 0;
#X connect 96 0 15 1;
#X connect 96 1 97 0;
#X connect 97 0 21 1;
#X connect 97 1 98 0;
#X connect 98 0 16 1;
#X connect 98 1 99 0;
#X connect 99 0 22 1;
#X connect 99 1 100 0;
#X connect 100 0 17 1;
#X connect 100 1 101 0;
#X connect 101 0 23 1;
#X connect 101 1 102 0;
#X connect 102 0 18 1;
#X connect 102 1 103 0;
#X connect 103 0 24 1;
#X connect 103 1 104 0;
#X connect 104 0 19 1;
#X connect 104 1 108 0;
#X connect 105 0 27 1;
#X connect 105 1 109 0;
#X connect 106 0 31 1;
#X connect 106 1 105 0;
#X connect 107 0 26 1;
#X connect 107 1 106 0;
#X connect 108 0 25 1;
#X connect 108 1 107 0;
#X connect 109 0 32 1;
#X connect 109 1 110 0;
#X connect 110 0 28 1;
#X connect 110 1 111 0;
#X connect 111 0 33 1;
#X connect 111 1 112 0;
#X connect 112 0 29 1;
#X connect 112 1 113 0;
#X connect 113 0 34 1;
#X connect 113 1 114 0;
#X connect 114 0 30 1;
#X connect 114 1 115 0;
#X connect 115 0 40 1;
#X connect 115 1 116 0;
#X connect 116 0 35 1;
#X connect 116 1 117 0;
#X connect 117 0 41 1;
#X connect 117 1 118 0;
#X connect 118 0 36 1;
#X connect 118 1 119 0;
#X connect 119 0 42 1;
#X connect 119 1 120 0;
#X connect 120 0 37 1;
#X connect 120 1 124 0;
#X connect 121 0 39 1;
#X connect 121 1 128 0;
#X connect 122 0 44 1;
#X connect 122 1 121 0;
#X connect 123 0 38 1;
#X connect 123 1 122 0;
#X connect 124 0 43 1;
#X connect 124 1 123 0;
#X connect 125 0 47 1;
#X connect 125 1 129 0;
#X connect 126 0 51 1;
#X connect 126 1 125 0;
#X connect 127 0 46 1;
#X connect 127 1 126 0;
#X connect 128 0 45 1;
#X connect 128 1 127 0;
#X connect 129 0 52 1;
#X connect 129 1 130 0;
#X connect 130 0 48 1;
#X connect 130 1 131 0;
#X connect 131 0 53 1;
#X connect 131 1 132 0;
#X connect 132 0 49 1;
#X connect 132 1 133 0;
#X connect 133 0 54 1;
#X connect 133 1 134 0;
#X connect 134 0 50 1;
#X connect 134 1 135 0;
#X connect 135 0 60 1;
#X connect 135 1 136 0;
#X connect 136 0 55 1;
#X connect 136 1 137 0;
#X connect 137 0 61 1;
#X connect 137 1 138 0;
#X connect 138 0 56 1;
#X connect 138 1 139 0;
#X connect 139 0 62 1;
#X connect 139 1 140 0;
#X connect 140 0 57 1;
#X connect 140 1 141 0;
#X connect 141 0 63 1;
#X connect 141 1 142 0;
#X connect 142 0 58 1;
#X connect 142 1 143 0;
#X connect 143 0 64 1;
#X connect 143 1 144 0;
#X connect 144 0 59 1;
#X connect 144 1 145 0;
#X connect 145 0 65 1;
#X connect 145 1 146 0;
#X connect 146 0 66 1;
#X connect 146 1 147 0;
#X connect 147 0 71 1;
#X connect 147 1 148 0;
#X connect 148 0 67 1;
#X connect 148 1 149 0;
#X connect 149 0 72 1;
#X connect 149 1 150 0;
#X connect 150 0 68 1;
#X connect 150 1 151 0;
#X connect 151 0 73 1;
#X connect 151 1 152 0;
#X connect 152 0 69 1;
#X connect 152 1 153 0;
#X connect 153 0 74 1;
#X connect 153 1 154 0;
#X connect 154 0 70 1;
#X connect 154 1 155 0;
#X connect 155 0 80 1;
#X connect 155 1 156 0;
#X connect 156 0 75 1;
#X connect 156 1 157 0;
#X connect 157 0 81 1;
#X connect 157 1 158 0;
#X connect 158 0 76 1;
#X connect 158 1 159 0;
#X connect 159 0 82 1;
#X connect 159 1 160 0;
#X connect 160 0 77 1;
#X connect 160 1 161 0;
#X connect 161 0 83 1;
#X connect 161 1 162 0;
#X connect 162 0 78 1;
#X connect 162 1 163 0;
#X connect 163 0 84 1;
#X connect 163 1 164 0;
#X connect 164 0 79 1;
#X connect 165 0 5 0;
#X connect 165 1 6 0;
#X connect 165 2 11 0;
#X connect 165 3 7 0;
#X connect 165 4 12 0;
#X connect 165 5 8 0;
#X connect 165 6 13 0;
#X connect 165 7 9 0;
#X connect 165 8 14 0;
#X connect 165 9 10 0;
#X connect 165 10 20 0;
#X connect 165 11 15 0;
#X connect 165 12 21 0;
#X connect 165 13 16 0;
#X connect 165 14 22 0;
#X connect 165 15 17 0;
#X connect 165 16 23 0;
#X connect 165 17 18 0;
#X connect 165 18 24 0;
#X connect 165 19 19 0;
#X connect 165 20 25 0;
#X connect 165 21 26 0;
#X connect 165 22 31 0;
#X connect 165 23 27 0;
#X connect 165 24 32 0;
#X connect 165 25 28 0;
#X connect 165 26 33 0;
#X connect 165 27 29 0;
#X connect 165 28 34 0;
#X connect 165 29 30 0;
#X connect 165 30 40 0;
#X connect 165 31 35 0;
#X connect 165 32 41 0;
#X connect 165 33 36 0;
#X connect 165 34 42 0;
#X connect 165 35 37 0;
#X connect 165 36 43 0;
#X connect 165 37 38 0;
#X connect 165 38 44 0;
#X connect 165 39 39 0;
#X connect 165 40 45 0;
#X connect 165 41 46 0;
#X connect 165 42 51 0;
#X connect 165 43 47 0;
#X connect 165 44 52 0;
#X connect 165 45 48 0;
#X connect 165 46 53 0;
#X connect 165 47 49 0;
#X connect 165 48 54 0;
#X connect 165 49 50 0;
#X connect 165 50 60 0;
#X connect 165 51 55 0;
#X connect 165 52 61 0;
#X connect 165 53 56 0;
#X connect 165 54 62 0;
#X connect 165 55 57 0;
#X connect 165 56 63 0;
#X connect 165 57 58 0;
#X connect 165 58 64 0;
#X connect 165 59 59 0;
#X connect 165 60 65 0;
#X connect 165 61 66 0;
#X connect 165 62 71 0;
#X connect 165 63 67 0;
#X connect 165 64 72 0;
#X connect 165 65 68 0;
#X connect 165 66 73 0;
#X connect 165 67 69 0;
#X connect 165 68 74 0;
#X connect 165 69 70 0;
#X connect 165 70 80 0;
#X connect 165 71 75 0;
#X connect 165 72 81 0;
#X connect 165 73 76 0;
#X connect 165 74 82 0;
#X connect 165 75 77 0;
#X connect 165 76 83 0;
#X connect 165 77 78 0;
#X connect 165 78 84 0;
#X connect 165 79 79 0;
